<svg width="56" height="56" viewBox="0 0 56 56" fill="none" xmlns="http://www.w3.org/2000/svg">
<circle cx="28" cy="28" r="28" fill="white" fill-opacity="0.3"/>
<mask id="mask0_56_634" style="mask-type:alpha" maskUnits="userSpaceOnUse" x="16" y="15" width="25" height="25">
<rect x="16" y="15" width="25" height="25" fill="#D9D9D9"/>
</mask>
<g mask="url(#mask0_56_634)">
<path d="M28.5 38.4375C27.25 37.257 25.8177 36.3542 24.2031 35.7292C22.5885 35.1042 20.8958 34.7917 19.125 34.7917V23.3333C20.8785 23.3333 22.5625 23.6502 24.1771 24.2839C25.7917 24.9175 27.2326 25.8333 28.5 27.0313C29.7674 25.8333 31.2083 24.9175 32.8229 24.2839C34.4375 23.6502 36.1215 23.3333 37.875 23.3333V34.7917C36.0868 34.7917 34.3898 35.1042 32.7839 35.7292C31.178 36.3542 29.75 37.257 28.5 38.4375ZM28.5 35.7292C29.5937 34.9132 30.7569 34.2622 31.9896 33.776C33.2222 33.2899 34.4896 32.9688 35.7917 32.8125V25.625C34.5243 25.8507 33.2786 26.3064 32.0547 26.9922C30.8307 27.678 29.6458 28.5938 28.5 29.7396C27.3542 28.5938 26.1693 27.678 24.9453 26.9922C23.7214 26.3064 22.4757 25.8507 21.2083 25.625V32.8125C22.5104 32.9688 23.7778 33.2899 25.0104 33.776C26.2431 34.2622 27.4062 34.9132 28.5 35.7292ZM28.5 24.375C27.3542 24.375 26.3733 23.967 25.5573 23.151C24.7413 22.3351 24.3333 21.3542 24.3333 20.2083C24.3333 19.0625 24.7413 18.0816 25.5573 17.2656C26.3733 16.4497 27.3542 16.0417 28.5 16.0417C29.6458 16.0417 30.6267 16.4497 31.4427 17.2656C32.2587 18.0816 32.6667 19.0625 32.6667 20.2083C32.6667 21.3542 32.2587 22.3351 31.4427 23.151C30.6267 23.967 29.6458 24.375 28.5 24.375ZM28.5 22.2917C29.0729 22.2917 29.5634 22.0877 29.9714 21.6797C30.3793 21.2717 30.5833 20.7813 30.5833 20.2083C30.5833 19.6354 30.3793 19.145 29.9714 18.737C29.5634 18.329 29.0729 18.125 28.5 18.125C27.9271 18.125 27.4366 18.329 27.0286 18.737C26.6207 19.145 26.4167 19.6354 26.4167 20.2083C26.4167 20.7813 26.6207 21.2717 27.0286 21.6797C27.4366 22.0877 27.9271 22.2917 28.5 22.2917Z" fill="#8C75E7"/>
</g>
</svg>
