<svg width="56" height="56" viewBox="0 0 56 56" fill="none" xmlns="http://www.w3.org/2000/svg">
<circle cx="28" cy="28" r="28" fill="white" fill-opacity="0.3"/>
<mask id="mask0_56_636" style="mask-type:alpha" maskUnits="userSpaceOnUse" x="17" y="14" width="25" height="25">
<rect x="17" y="14" width="25" height="25" fill="#D9D9D9"/>
</mask>
<g mask="url(#mask0_56_636)">
<path d="M21.1667 36.9167C20.8715 36.9167 20.6241 36.8168 20.4245 36.6172C20.2248 36.4175 20.125 36.1701 20.125 35.875V21.3437C20.125 21.0833 20.1771 20.862 20.2813 20.6797C20.3854 20.4974 20.559 20.3542 20.8021 20.25L31.2188 16.0833C31.566 15.9444 31.8872 15.9922 32.1823 16.2266C32.4774 16.4609 32.625 16.7604 32.625 17.125V20.25H33.6667C33.9618 20.25 34.2092 20.3498 34.4089 20.5495C34.6085 20.7491 34.7083 20.9965 34.7083 21.2917V24.4167H32.625V22.3333H22.2083V34.8333H27.599L29.6823 36.9167H21.1667ZM26.375 20.25H30.5417V18.6354L26.375 20.25ZM34.7083 36.9167C33.2674 36.9167 32.0391 36.4089 31.0234 35.3932C30.0078 34.3776 29.5 33.1493 29.5 31.7083C29.5 30.2674 30.0078 29.0391 31.0234 28.0234C32.0391 27.0078 33.2674 26.5 34.7083 26.5C36.1493 26.5 37.3776 27.0078 38.3932 28.0234C39.4089 29.0391 39.9167 30.2674 39.9167 31.7083C39.9167 33.1493 39.4089 34.3776 38.3932 35.3932C37.3776 36.4089 36.1493 36.9167 34.7083 36.9167ZM33.4062 34.3125L37.5729 31.7083L33.4062 29.1042V34.3125Z" fill="#80B6C7"/>
</g>
</svg>
