<svg width="24" height="24" viewBox="0 0 24 24" fill="none" xmlns="http://www.w3.org/2000/svg">
<mask id="mask0_10_19" style="mask-type:alpha" maskUnits="userSpaceOnUse" x="0" y="0" width="24" height="24">
<rect width="24" height="24" fill="#D9D9D9"/>
</mask>
<g mask="url(#mask0_10_19)">
<path d="M11.3 20C11.4 20.3333 11.5375 20.6792 11.7125 21.0375C11.8875 21.3958 12.0667 21.7167 12.25 22H5C4.45 22 3.97917 21.8042 3.5875 21.4125C3.19583 21.0208 3 20.55 3 20V4C3 3.45 3.19583 2.97917 3.5875 2.5875C3.97917 2.19583 4.45 2 5 2H17C17.55 2 18.0208 2.19583 18.4125 2.5875C18.8042 2.97917 19 3.45 19 4V11.1C18.7 11.0667 18.3667 11.05 18 11.05C17.6333 11.05 17.3 11.0667 17 11.1V4H12V11L9.5 9.5L7 11V4H5V20H11.3ZM18 23C16.6167 23 15.4375 22.5125 14.4625 21.5375C13.4875 20.5625 13 19.3833 13 18C13 16.6167 13.4875 15.4375 14.4625 14.4625C15.4375 13.4875 16.6167 13 18 13C19.3833 13 20.5625 13.4875 21.5375 14.4625C22.5125 15.4375 23 16.6167 23 18C23 19.3833 22.5125 20.5625 21.5375 21.5375C20.5625 22.5125 19.3833 23 18 23ZM16.75 20.5L20.75 18L16.75 15.5V20.5ZM11.3 4H5H17H11H11.3Z" fill="white"/>
</g>
</svg>
