<svg width="200" height="34" viewBox="0 0 200 34" fill="none" xmlns="http://www.w3.org/2000/svg">
<path d="M28 0H6C2.68629 0 0 2.68629 0 6V28C0 31.3137 2.68629 34 6 34H28C31.3137 34 34 31.3137 34 28V6C34 2.68629 31.3137 0 28 0Z" fill="#CDEAAF"/>
<path d="M9 9H25M9 9V25H25V9M9 9L17 14L25 9" stroke="white" stroke-width="2" stroke-linejoin="round"/>
<path d="M56.098 12.5469H52.9872C52.9304 12.1444 52.8144 11.7869 52.6392 11.4744C52.464 11.1572 52.2391 10.8873 51.9645 10.6648C51.6899 10.4422 51.3726 10.2718 51.0128 10.1534C50.6577 10.035 50.2718 9.97585 49.8551 9.97585C49.1023 9.97585 48.4465 10.1629 47.8878 10.5369C47.3291 10.9062 46.8958 11.446 46.5881 12.1562C46.2803 12.8617 46.1264 13.7187 46.1264 14.7273C46.1264 15.7642 46.2803 16.6354 46.5881 17.3409C46.9006 18.0464 47.3362 18.5791 47.8949 18.9389C48.4536 19.2988 49.0999 19.4787 49.8338 19.4787C50.2457 19.4787 50.6269 19.4242 50.9773 19.3153C51.3324 19.2064 51.6473 19.0478 51.9219 18.8395C52.1965 18.6264 52.4238 18.3684 52.6037 18.0653C52.7884 17.7623 52.9162 17.4167 52.9872 17.0284L56.098 17.0426C56.0175 17.7102 55.8163 18.3542 55.4943 18.9744C55.1771 19.59 54.7486 20.1416 54.2088 20.6293C53.6738 21.1122 53.0346 21.4957 52.2912 21.7798C51.5526 22.0592 50.7169 22.1989 49.7841 22.1989C48.4867 22.1989 47.3267 21.9053 46.304 21.3182C45.286 20.7311 44.4811 19.8812 43.8892 18.7685C43.3021 17.6558 43.0085 16.3087 43.0085 14.7273C43.0085 13.1411 43.3068 11.7917 43.9034 10.679C44.5 9.56629 45.3097 8.71875 46.3324 8.13636C47.3551 7.54924 48.5057 7.25568 49.7841 7.25568C50.6269 7.25568 51.4081 7.37405 52.1278 7.6108C52.8523 7.84754 53.4938 8.19318 54.0526 8.64773C54.6113 9.09754 55.0658 9.64915 55.4162 10.3026C55.7713 10.956 55.9986 11.7041 56.098 12.5469ZM61.272 7.45455V22H58.2464V7.45455H61.272ZM66.8065 22.206C66.1104 22.206 65.4902 22.0852 64.9457 21.8438C64.4012 21.5975 63.9703 21.2353 63.6531 20.7571C63.3406 20.2741 63.1843 19.6728 63.1843 18.9531C63.1843 18.3471 63.2956 17.8381 63.5181 17.4261C63.7406 17.0142 64.0437 16.6828 64.4272 16.4318C64.8107 16.1809 65.2463 15.9915 65.734 15.8636C66.2264 15.7358 66.7425 15.6458 67.2823 15.5938C67.9168 15.5275 68.4281 15.4659 68.8164 15.4091C69.2047 15.3475 69.4864 15.2576 69.6616 15.1392C69.8368 15.0208 69.9244 14.8456 69.9244 14.6136V14.571C69.9244 14.1212 69.7823 13.7732 69.4982 13.527C69.2189 13.2808 68.8211 13.1577 68.305 13.1577C67.7605 13.1577 67.3273 13.2784 67.0053 13.5199C66.6834 13.7566 66.4703 14.0549 66.3661 14.4148L63.5678 14.1875C63.7099 13.5246 63.9892 12.9517 64.4059 12.4688C64.8226 11.9811 65.36 11.607 66.0181 11.3466C66.681 11.0814 67.448 10.9489 68.3192 10.9489C68.9253 10.9489 69.5053 11.0199 70.0593 11.1619C70.618 11.304 71.1128 11.5241 71.5437 11.8224C71.9793 12.1207 72.3226 12.5043 72.5735 12.973C72.8245 13.437 72.9499 13.9934 72.9499 14.642V22H70.0806V20.4872H69.9954C69.8202 20.8281 69.5858 21.1288 69.2923 21.3892C68.9987 21.6449 68.646 21.8461 68.234 21.9929C67.8221 22.1349 67.3462 22.206 66.8065 22.206ZM67.6729 20.1179C68.118 20.1179 68.511 20.0303 68.8519 19.8551C69.1928 19.6752 69.4603 19.4337 69.6545 19.1307C69.8486 18.8277 69.9457 18.4844 69.9457 18.1009V16.9432C69.851 17.0047 69.7208 17.0616 69.555 17.1136C69.3941 17.161 69.2118 17.206 69.0082 17.2486C68.8046 17.2865 68.601 17.322 68.3974 17.3551C68.1938 17.3835 68.0091 17.4096 67.8434 17.4332C67.4883 17.4853 67.1781 17.5682 66.913 17.6818C66.6478 17.7955 66.4419 17.9493 66.2951 18.1435C66.1483 18.3329 66.0749 18.5696 66.0749 18.8537C66.0749 19.2656 66.2241 19.5805 66.5224 19.7983C66.8254 20.0114 67.2089 20.1179 67.6729 20.1179ZM84.3739 14.2017L81.604 14.3722C81.5567 14.1354 81.4549 13.9223 81.2987 13.733C81.1424 13.5388 80.9364 13.3849 80.6808 13.2713C80.4298 13.1529 80.1291 13.0938 79.7788 13.0938C79.31 13.0938 78.9147 13.1932 78.5927 13.392C78.2707 13.5862 78.1097 13.8466 78.1097 14.1733C78.1097 14.4337 78.2139 14.6539 78.4222 14.8338C78.6306 15.0137 78.988 15.1581 79.4947 15.267L81.4691 15.6648C82.5297 15.8826 83.3204 16.233 83.8413 16.7159C84.3621 17.1989 84.6225 17.8333 84.6225 18.6193C84.6225 19.3343 84.4118 19.9616 83.9904 20.5014C83.5737 21.0412 83.0008 21.4626 82.2717 21.7656C81.5472 22.0639 80.7115 22.2131 79.7646 22.2131C78.3204 22.2131 77.1699 21.9124 76.3129 21.3111C75.4606 20.705 74.9611 19.8812 74.8143 18.8395L77.7901 18.6832C77.8801 19.1236 78.0979 19.4598 78.4435 19.6918C78.7892 19.919 79.2319 20.0327 79.7717 20.0327C80.302 20.0327 80.7281 19.9309 81.0501 19.7273C81.3768 19.5189 81.5425 19.2514 81.5472 18.9247C81.5425 18.6501 81.4265 18.4252 81.1992 18.25C80.9719 18.0701 80.6216 17.9328 80.1481 17.8381L78.2589 17.4616C77.1935 17.2486 76.4004 16.8793 75.8796 16.3537C75.3635 15.8281 75.1055 15.1581 75.1055 14.3438C75.1055 13.643 75.2949 13.0393 75.6737 12.5327C76.0572 12.026 76.5946 11.6354 77.2859 11.3608C77.9819 11.0862 78.7963 10.9489 79.729 10.9489C81.1069 10.9489 82.1912 11.2401 82.9819 11.8224C83.7773 12.4048 84.2414 13.1979 84.3739 14.2017ZM95.6044 14.2017L92.8345 14.3722C92.7872 14.1354 92.6854 13.9223 92.5291 13.733C92.3729 13.5388 92.1669 13.3849 91.9112 13.2713C91.6603 13.1529 91.3596 13.0938 91.0092 13.0938C90.5405 13.0938 90.1451 13.1932 89.8232 13.392C89.5012 13.5862 89.3402 13.8466 89.3402 14.1733C89.3402 14.4337 89.4444 14.6539 89.6527 14.8338C89.861 15.0137 90.2185 15.1581 90.7251 15.267L92.6996 15.6648C93.7602 15.8826 94.5509 16.233 95.0717 16.7159C95.5926 17.1989 95.853 17.8333 95.853 18.6193C95.853 19.3343 95.6423 19.9616 95.2209 20.5014C94.8042 21.0412 94.2313 21.4626 93.5021 21.7656C92.7777 22.0639 91.942 22.2131 90.995 22.2131C89.5509 22.2131 88.4003 21.9124 87.5433 21.3111C86.6911 20.705 86.1915 19.8812 86.0447 18.8395L89.0206 18.6832C89.1106 19.1236 89.3284 19.4598 89.674 19.6918C90.0196 19.919 90.4624 20.0327 91.0021 20.0327C91.5324 20.0327 91.9586 19.9309 92.2805 19.7273C92.6072 19.5189 92.773 19.2514 92.7777 18.9247C92.773 18.6501 92.657 18.4252 92.4297 18.25C92.2024 18.0701 91.852 17.9328 91.3786 17.8381L89.4893 17.4616C88.424 17.2486 87.6309 16.8793 87.1101 16.3537C86.594 15.8281 86.3359 15.1581 86.3359 14.3438C86.3359 13.643 86.5253 13.0393 86.9041 12.5327C87.2876 12.026 87.825 11.6354 88.5163 11.3608C89.2124 11.0862 90.0268 10.9489 90.9595 10.9489C92.3374 10.9489 93.4216 11.2401 94.2124 11.8224C95.0078 12.4048 95.4718 13.1979 95.6044 14.2017ZM97.815 22V7.45455H103.639C104.709 7.45455 105.601 7.61316 106.316 7.9304C107.031 8.24763 107.569 8.68797 107.929 9.25142C108.288 9.81013 108.468 10.4541 108.468 11.1832C108.468 11.7514 108.355 12.2509 108.127 12.6818C107.9 13.108 107.588 13.4583 107.19 13.733C106.797 14.0028 106.347 14.1946 105.841 14.3082V14.4503C106.395 14.474 106.913 14.6302 107.396 14.919C107.884 15.2079 108.279 15.6127 108.582 16.1335C108.885 16.6496 109.037 17.2652 109.037 17.9801C109.037 18.7519 108.845 19.4408 108.461 20.0469C108.083 20.6482 107.521 21.1241 106.778 21.4744C106.035 21.8248 105.118 22 104.029 22H97.815ZM100.89 19.4858H103.397C104.254 19.4858 104.879 19.3224 105.272 18.9957C105.665 18.6643 105.862 18.224 105.862 17.6747C105.862 17.2723 105.765 16.9171 105.571 16.6094C105.377 16.3016 105.1 16.0601 104.74 15.8849C104.385 15.7098 103.961 15.6222 103.468 15.6222H100.89V19.4858ZM100.89 13.5412H103.17C103.592 13.5412 103.966 13.4678 104.292 13.321C104.624 13.1695 104.884 12.9564 105.074 12.6818C105.268 12.4072 105.365 12.0781 105.365 11.6946C105.365 11.169 105.178 10.7453 104.804 10.4233C104.434 10.1013 103.909 9.94034 103.227 9.94034H100.89V13.5412ZM115.91 22.2131C114.807 22.2131 113.853 21.9787 113.048 21.5099C112.247 21.0365 111.629 20.3783 111.194 19.5355C110.758 18.688 110.54 17.7055 110.54 16.5881C110.54 15.4612 110.758 14.4763 111.194 13.6335C111.629 12.786 112.247 12.1278 113.048 11.6591C113.853 11.1856 114.807 10.9489 115.91 10.9489C117.013 10.9489 117.965 11.1856 118.765 11.6591C119.57 12.1278 120.19 12.786 120.626 13.6335C121.061 14.4763 121.279 15.4612 121.279 16.5881C121.279 17.7055 121.061 18.688 120.626 19.5355C120.19 20.3783 119.57 21.0365 118.765 21.5099C117.965 21.9787 117.013 22.2131 115.91 22.2131ZM115.924 19.8693C116.426 19.8693 116.845 19.7273 117.181 19.4432C117.517 19.1544 117.771 18.7614 117.941 18.2642C118.116 17.767 118.204 17.2012 118.204 16.5668C118.204 15.9323 118.116 15.3665 117.941 14.8693C117.771 14.3722 117.517 13.9792 117.181 13.6903C116.845 13.4015 116.426 13.2571 115.924 13.2571C115.417 13.2571 114.991 13.4015 114.646 13.6903C114.305 13.9792 114.047 14.3722 113.871 14.8693C113.701 15.3665 113.616 15.9323 113.616 16.5668C113.616 17.2012 113.701 17.767 113.871 18.2642C114.047 18.7614 114.305 19.1544 114.646 19.4432C114.991 19.7273 115.417 19.8693 115.924 19.8693ZM126.357 22.206C125.661 22.206 125.041 22.0852 124.496 21.8438C123.952 21.5975 123.521 21.2353 123.204 20.7571C122.891 20.2741 122.735 19.6728 122.735 18.9531C122.735 18.3471 122.846 17.8381 123.069 17.4261C123.291 17.0142 123.594 16.6828 123.978 16.4318C124.362 16.1809 124.797 15.9915 125.285 15.8636C125.777 15.7358 126.293 15.6458 126.833 15.5938C127.468 15.5275 127.979 15.4659 128.367 15.4091C128.755 15.3475 129.037 15.2576 129.212 15.1392C129.388 15.0208 129.475 14.8456 129.475 14.6136V14.571C129.475 14.1212 129.333 13.7732 129.049 13.527C128.77 13.2808 128.372 13.1577 127.856 13.1577C127.311 13.1577 126.878 13.2784 126.556 13.5199C126.234 13.7566 126.021 14.0549 125.917 14.4148L123.119 14.1875C123.261 13.5246 123.54 12.9517 123.957 12.4688C124.373 11.9811 124.911 11.607 125.569 11.3466C126.232 11.0814 126.999 10.9489 127.87 10.9489C128.476 10.9489 129.056 11.0199 129.61 11.1619C130.169 11.304 130.664 11.5241 131.094 11.8224C131.53 12.1207 131.873 12.5043 132.124 12.973C132.375 13.437 132.501 13.9934 132.501 14.642V22H129.631V20.4872H129.546C129.371 20.8281 129.137 21.1288 128.843 21.3892C128.549 21.6449 128.197 21.8461 127.785 21.9929C127.373 22.1349 126.897 22.206 126.357 22.206ZM127.224 20.1179C127.669 20.1179 128.062 20.0303 128.403 19.8551C128.744 19.6752 129.011 19.4337 129.205 19.1307C129.399 18.8277 129.496 18.4844 129.496 18.1009V16.9432C129.402 17.0047 129.272 17.0616 129.106 17.1136C128.945 17.161 128.763 17.206 128.559 17.2486C128.355 17.2865 128.152 17.322 127.948 17.3551C127.745 17.3835 127.56 17.4096 127.394 17.4332C127.039 17.4853 126.729 17.5682 126.464 17.6818C126.199 17.7955 125.993 17.9493 125.846 18.1435C125.699 18.3329 125.626 18.5696 125.626 18.8537C125.626 19.2656 125.775 19.5805 126.073 19.7983C126.376 20.0114 126.76 20.1179 127.224 20.1179ZM134.848 22V11.0909H137.781V12.9943H137.895C138.094 12.3172 138.428 11.8059 138.896 11.4602C139.365 11.1098 139.905 10.9347 140.516 10.9347C140.667 10.9347 140.83 10.9441 141.006 10.9631C141.181 10.982 141.335 11.008 141.467 11.0412V13.7259C141.325 13.6832 141.129 13.6454 140.878 13.6122C140.627 13.5791 140.397 13.5625 140.189 13.5625C139.744 13.5625 139.346 13.6596 138.996 13.8537C138.65 14.0431 138.375 14.3082 138.172 14.6491C137.973 14.9901 137.874 15.383 137.874 15.8281V22H134.848ZM146.544 22.1776C145.715 22.1776 144.965 21.9645 144.292 21.5384C143.625 21.1075 143.094 20.4754 142.701 19.642C142.313 18.804 142.119 17.7765 142.119 16.5597C142.119 15.3097 142.32 14.2704 142.723 13.4418C143.125 12.6084 143.66 11.9858 144.328 11.5739C145 11.1572 145.736 10.9489 146.537 10.9489C147.147 10.9489 147.656 11.053 148.064 11.2614C148.475 11.465 148.807 11.7206 149.058 12.0284C149.314 12.3314 149.508 12.6297 149.64 12.9233H149.733V7.45455H152.751V22H149.768V20.2528H149.64C149.498 20.5559 149.297 20.8565 149.037 21.1548C148.781 21.4484 148.447 21.6922 148.035 21.8864C147.628 22.0805 147.131 22.1776 146.544 22.1776ZM147.502 19.7699C147.99 19.7699 148.402 19.6373 148.738 19.3722C149.079 19.1023 149.34 18.7259 149.52 18.2429C149.704 17.7599 149.797 17.1941 149.797 16.5455C149.797 15.8968 149.707 15.3333 149.527 14.8551C149.347 14.3769 149.086 14.0076 148.745 13.7472C148.404 13.4867 147.99 13.3565 147.502 13.3565C147.005 13.3565 146.586 13.4915 146.245 13.7614C145.904 14.0312 145.646 14.4053 145.471 14.8835C145.296 15.3617 145.208 15.9157 145.208 16.5455C145.208 17.1799 145.296 17.741 145.471 18.2287C145.651 18.7116 145.909 19.0904 146.245 19.3651C146.586 19.6349 147.005 19.7699 147.502 19.7699Z" fill="#F0F0F0"/>
</svg>
