<svg width="33" height="33" viewBox="0 0 33 33" fill="none" xmlns="http://www.w3.org/2000/svg">
<circle cx="16.5" cy="16.5" r="16.5" fill="#E6E6E6"/>
<mask id="mask0_47_630" style="mask-type:alpha" maskUnits="userSpaceOnUse" x="5" y="5" width="24" height="24">
<rect x="5" y="5" width="24" height="24" fill="#D9D9D9"/>
</mask>
<g mask="url(#mask0_47_630)">
<path d="M17 27C16.45 27 15.9792 26.8042 15.5875 26.4125C15.1958 26.0208 15 25.55 15 25H19C19 25.55 18.8042 26.0208 18.4125 26.4125C18.0208 26.8042 17.55 27 17 27ZM9 24V22H11V15C11 13.6167 11.4167 12.3875 12.25 11.3125C13.0833 10.2375 14.1667 9.53333 15.5 9.2V8.5C15.5 8.08333 15.6458 7.72917 15.9375 7.4375C16.2292 7.14583 16.5833 7 17 7C17.4167 7 17.7708 7.14583 18.0625 7.4375C18.3542 7.72917 18.5 8.08333 18.5 8.5V8.825C18.3167 9.19167 18.1833 9.56667 18.1 9.95C18.0167 10.3333 17.9833 10.725 18 11.125C17.8333 11.0917 17.6708 11.0625 17.5125 11.0375C17.3542 11.0125 17.1833 11 17 11C15.9 11 14.9583 11.3917 14.175 12.175C13.3917 12.9583 13 13.9 13 15V22H21V15.575C21.3 15.7083 21.6208 15.8125 21.9625 15.8875C22.3042 15.9625 22.65 16 23 16V22H25V24H9ZM23 14C22.1667 14 21.4583 13.7083 20.875 13.125C20.2917 12.5417 20 11.8333 20 11C20 10.1667 20.2917 9.45833 20.875 8.875C21.4583 8.29167 22.1667 8 23 8C23.8333 8 24.5417 8.29167 25.125 8.875C25.7083 9.45833 26 10.1667 26 11C26 11.8333 25.7083 12.5417 25.125 13.125C24.5417 13.7083 23.8333 14 23 14Z" fill="#1C1B1F"/>
</g>
</svg>
