<svg width="56" height="56" viewBox="0 0 56 56" fill="none" xmlns="http://www.w3.org/2000/svg">
<circle cx="28" cy="28" r="28" fill="white" fill-opacity="0.3"/>
<mask id="mask0_58_646" style="mask-type:alpha" maskUnits="userSpaceOnUse" x="17" y="16" width="24" height="24">
<rect x="17" y="16" width="24" height="24" fill="#D9D9D9"/>
</mask>
<g mask="url(#mask0_58_646)">
<path d="M29 38C27.6167 38 26.3167 37.7375 25.1 37.2125C23.8833 36.6875 22.825 35.975 21.925 35.075C21.025 34.175 20.3125 33.1167 19.7875 31.9C19.2625 30.6833 19 29.3833 19 28C19 26.6167 19.2625 25.3167 19.7875 24.1C20.3125 22.8833 21.025 21.825 21.925 20.925C22.825 20.025 23.8833 19.3125 25.1 18.7875C26.3167 18.2625 27.6167 18 29 18C30.3833 18 31.6833 18.2625 32.9 18.7875C34.1167 19.3125 35.175 20.025 36.075 20.925C36.975 21.825 37.6875 22.8833 38.2125 24.1C38.7375 25.3167 39 26.6167 39 28C39 29.3833 38.7375 30.6833 38.2125 31.9C37.6875 33.1167 36.975 34.175 36.075 35.075C35.175 35.975 34.1167 36.6875 32.9 37.2125C31.6833 37.7375 30.3833 38 29 38ZM29 36C31.2333 36 33.125 35.225 34.675 33.675C36.225 32.125 37 30.2333 37 28C37 26.9333 36.8 25.9083 36.4 24.925C36 23.9417 35.425 23.075 34.675 22.325L29 28V20C26.7667 20 24.875 20.775 23.325 22.325C21.775 23.875 21 25.7667 21 28C21 30.2333 21.775 32.125 23.325 33.675C24.875 35.225 26.7667 36 29 36Z" fill="#EE96B8"/>
</g>
</svg>
