<svg width="56" height="56" viewBox="0 0 56 56" fill="none" xmlns="http://www.w3.org/2000/svg">
<circle cx="28" cy="28" r="28" fill="white" fill-opacity="0.3"/>
<mask id="mask0_58_645" style="mask-type:alpha" maskUnits="userSpaceOnUse" x="17" y="17" width="24" height="24">
<rect x="17" y="17" width="24" height="24" fill="#D9D9D9"/>
</mask>
<g mask="url(#mask0_58_645)">
<path d="M21 34C20.45 34 19.9792 33.8042 19.5875 33.4125C19.1958 33.0208 19 32.55 19 32V24.15C19 23.9 19.0708 23.6542 19.2125 23.4125C19.3542 23.1708 19.55 22.9833 19.8 22.85L27.5 19L35.05 22.85C35.25 22.95 35.4208 23.1083 35.5625 23.325C35.7042 23.5417 35.8 23.7667 35.85 24H32.925L27.5 21.25L21 24.475V34ZM24 38C23.45 38 22.9792 37.8042 22.5875 37.4125C22.1958 37.0208 22 36.55 22 36V27C22 26.45 22.1958 25.9792 22.5875 25.5875C22.9792 25.1958 23.45 25 24 25H37C37.55 25 38.0208 25.1958 38.4125 25.5875C38.8042 25.9792 39 26.45 39 27V36C39 36.55 38.8042 37.0208 38.4125 37.4125C38.0208 37.8042 37.55 38 37 38H24ZM30.5 32.35L24 29V36H37V29L30.5 32.35ZM30.5 30.35L37 27H24L30.5 30.35Z" fill="#F5927E"/>
</g>
</svg>
